# xmcd CD database file
#
# Track frame offsets:
#	150
#	39902
#	71402
#	87041
#	121308
#	160552
#	189729
#	215132
#	255614
#	282776
#
# Disc length: 3959 seconds
#
# Revision: 0
# Processed by: cddbd v1.5.1PL0 Copyright (c) Steve Scherf et al.
# Submitted via: CDex 1.51
#
DISCID=840f750a
DTITLE=Paul Avgerinos - Phos Hilaron
DYEAR=2005
DGENRE=New Age
TTITLE0=Humbly I Adore Thee
TTITLE1=O Sons and Daughters
TTITLE2=Call to Prayer
TTITLE3=Phos Hilaron
TTITLE4=Anoint and Cheer
TTITLE5=Song of the Gladness
TTITLE6=Kyrie
TTITLE7=Oneness
TTITLE8=The Mystery Telling
TTITLE9=O Heavenly Word
EXTD=YEAR: 2005
EXTT0=
EXTT1=
EXTT2=
EXTT3=
EXTT4=
EXTT5=
EXTT6=
EXTT7=
EXTT8=
EXTT9=
PLAYORDER=
